<svg xmlns="http://www.w3.org/2000/svg" xmlns:xlink="http://www.w3.org/1999/xlink" width="48"
    zoomAndPan="magnify" viewBox="0 0 36 23.999999" height="32" preserveAspectRatio="xMidYMid meet"
    version="1.0">
    <defs>
        <g />
        <clipPath id="be4e068c41">
            <path
                d="M 3.75 0 L 32.25 0 C 34.320312 0 36 1.679688 36 3.75 L 36 20.25 C 36 22.320312 34.320312 24 32.25 24 L 3.75 24 C 1.679688 24 0 22.320312 0 20.25 L 0 3.75 C 0 1.679688 1.679688 0 3.75 0 Z M 3.75 0 "
                clip-rule="nonzero" />
        </clipPath>
        <clipPath id="20665e3376">
            <path d="M 3 3 L 33 3 L 33 21 L 3 21 Z M 3 3 " clip-rule="nonzero" />
        </clipPath>
        <clipPath id="38e047530e">
            <path
                d="M 18 3 C 9.714844 3 3 7.03125 3 12 C 3 16.96875 9.714844 21 18 21 C 26.285156 21 33 16.96875 33 12 C 33 7.03125 26.285156 3 18 3 Z M 18 3 "
                clip-rule="nonzero" />
        </clipPath>
    </defs>
    <rect x="-3.6" width="43.2" fill="#ffffff" y="-2.4" height="28.799999" fill-opacity="1" />
    <g clip-path="url(#be4e068c41)">
        <rect x="-3.6" width="43.2" fill="#ffde59" y="-2.4" height="28.799999" fill-opacity="1" />
        <path stroke-linecap="butt" transform="matrix(0.75, 0, 0, 0.75, 0.000000986442, 0)"
            fill="none" stroke-linejoin="miter"
            d="M 4.999999 0 L 43.000002 0 C 45.760418 0 48.000002 2.239583 48.000002 5 L 48.000002 27.000002 C 48.000002 29.760419 45.760418 32.000002 43.000002 32.000002 L 4.999999 32.000002 C 2.239582 32.000002 -0.00000131526 29.760419 -0.00000131526 27.000002 L -0.00000131526 5 C -0.00000131526 2.239583 2.239582 0 4.999999 0 Z M 4.999999 0 "
            stroke="#000000" stroke-width="2" stroke-opacity="1" stroke-miterlimit="4" />
    </g>
    <g clip-path="url(#20665e3376)">
        <g clip-path="url(#38e047530e)">
            <path fill="#000000" d="M 3 3 L 33.023438 3 L 33.023438 21 L 3 21 Z M 3 3 "
                fill-opacity="1" fill-rule="nonzero" />
        </g>
    </g>
    <g fill="#ffffff" fill-opacity="1">
        <g transform="translate(6.590436, 14.606059)">
            <g>
                <path
                    d="M 3.0625 0 L 1.71875 -4.375 L 1.6875 -4.375 C 1.738281 -3.488281 1.765625 -2.894531 1.765625 -2.59375 L 1.765625 0 L 0.703125 0 L 0.703125 -5.578125 L 2.3125 -5.578125 L 3.625 -1.3125 L 3.65625 -1.3125 L 5.046875 -5.578125 L 6.671875 -5.578125 L 6.671875 0 L 5.5625 0 L 5.5625 -2.640625 C 5.5625 -2.765625 5.5625 -2.90625 5.5625 -3.0625 C 5.570312 -3.226562 5.59375 -3.664062 5.625 -4.375 L 5.578125 -4.375 L 4.140625 0 Z M 3.0625 0 " />
            </g>
        </g>
        <g transform="translate(13.961972, 14.606059)">
            <g>
                <path
                    d="M 3.90625 0 L 0.703125 0 L 0.703125 -5.578125 L 3.90625 -5.578125 L 3.90625 -4.609375 L 1.890625 -4.609375 L 1.890625 -3.390625 L 3.765625 -3.390625 L 3.765625 -2.421875 L 1.890625 -2.421875 L 1.890625 -0.984375 L 3.90625 -0.984375 Z M 3.90625 0 " />
            </g>
        </g>
        <g transform="translate(18.340612, 14.606059)">
            <g>
                <path
                    d="M 2.8125 -3.125 L 5.03125 -3.125 L 5.03125 -0.234375 C 4.675781 -0.117188 4.335938 -0.0390625 4.015625 0 C 3.703125 0.0507812 3.378906 0.078125 3.046875 0.078125 C 2.203125 0.078125 1.554688 -0.164062 1.109375 -0.65625 C 0.671875 -1.15625 0.453125 -1.867188 0.453125 -2.796875 C 0.453125 -3.691406 0.707031 -4.390625 1.21875 -4.890625 C 1.738281 -5.398438 2.457031 -5.65625 3.375 -5.65625 C 3.945312 -5.65625 4.5 -5.539062 5.03125 -5.3125 L 4.625 -4.375 C 4.21875 -4.570312 3.796875 -4.671875 3.359375 -4.671875 C 2.847656 -4.671875 2.4375 -4.5 2.125 -4.15625 C 1.820312 -3.8125 1.671875 -3.347656 1.671875 -2.765625 C 1.671875 -2.160156 1.796875 -1.695312 2.046875 -1.375 C 2.296875 -1.0625 2.65625 -0.90625 3.125 -0.90625 C 3.375 -0.90625 3.625 -0.929688 3.875 -0.984375 L 3.875 -2.140625 L 2.8125 -2.140625 Z M 2.8125 -3.125 " />
            </g>
        </g>
        <g transform="translate(24.001921, 14.606059)">
            <g>
                <path
                    d="M 4.109375 0 L 3.71875 -1.328125 L 1.671875 -1.328125 L 1.28125 0 L 0 0 L 1.96875 -5.59375 L 3.421875 -5.59375 L 5.390625 0 Z M 3.421875 -2.3125 C 3.054688 -3.519531 2.847656 -4.203125 2.796875 -4.359375 C 2.753906 -4.515625 2.722656 -4.640625 2.703125 -4.734375 C 2.617188 -4.410156 2.375 -3.601562 1.96875 -2.3125 Z M 3.421875 -2.3125 " />
            </g>
        </g>
    </g>
</svg>